<svg width="96" height="96" xmlns="http://www.w3.org/2000/svg" xmlns:xlink="http://www.w3.org/1999/xlink" overflow="hidden"><defs><clipPath id="clip0"><rect x="592" y="312" width="96" height="96"/></clipPath></defs><g clip-path="url(#clip0)" transform="translate(-592 -312)"><path d="M610 380 669 380C669.6 380 670 379.6 670 379 670 378.8 670 378.7 669.9 378.5L655.9 354.5C655.7 354.2 655.4 354 655 354L655 354C654.6 354 654.3 354.2 654.1 354.5L647.8 366.2 632.8 343.4C632.7 343.2 632.3 343 632 343L632 343C631.7 343 631.3 343.2 631.2 343.5L619.3 362.3C619.2 362.4 619.1 362.6 619 362.7L609.1 378.5C608.8 379 608.9 379.6 609.4 379.9 609.6 379.9 609.8 380 610 380ZM655 357.1 667.3 378 655.5 378 649 368.1 655 357.1C655 357.1 655 357.1 655 357.1 655 357.1 655 357.1 655 357.1ZM642.1 361.2 636 357.6C635.6 357.4 635.1 357.4 634.8 357.8L632 360.6 629.7 358.3C629.4 358 629 357.9 628.6 358.1L622.7 360.7 632 345.9C632 345.9 632 345.9 632 345.9L642.1 361.2ZM620.8 363.8 628.8 360.2 631.3 362.7C631.7 363.1 632.3 363.1 632.7 362.7L635.7 359.7 644.5 364.8C644.5 364.8 644.5 364.8 644.5 364.8L653.1 378 611.8 378 620.8 363.8Z"/><path d="M619 347C620.7 347 622 345.7 622 344 622 342.3 620.7 341 619 341 617.3 341 616 342.3 616 344 616 345.7 617.3 347 619 347ZM619 343C619.6 343 620 343.4 620 344 620 344.6 619.6 345 619 345 618.4 345 618 344.6 618 344 618 343.4 618.4 343 619 343Z"/><path d="M678 332 602 332 602 390 678 390 678 332ZM676 388 604 388 604 334 676 334 676 388Z"/></g></svg>