<svg width="48" height="48" xmlns="http://www.w3.org/2000/svg" xmlns:xlink="http://www.w3.org/1999/xlink" overflow="hidden"><defs><clipPath id="clip0"><rect x="592" y="312" width="48" height="48"/></clipPath></defs><g clip-path="url(#clip0)" transform="translate(-592 -312)"><path d="M634.75 349.8 628.5 343.55C627.65 342.7 626.5 342.4 625.4 342.6L623.2 340.4C625.15 337.9 626.3 334.7 626.3 331.3 626.3 323.05 619.55 316.3 611.3 316.3 603.05 316.3 596.3 323.05 596.3 331.3 596.3 339.55 603.05 346.3 611.3 346.3 614.7 346.3 617.85 345.15 620.4 343.2L622.6 345.4C622.4 346.5 622.7 347.65 623.55 348.5L629.8 354.75C630.5 355.45 631.4 355.8 632.3 355.8 633.2 355.8 634.1 355.45 634.8 354.75 636.1 353.35 636.1 351.15 634.75 349.8ZM611.25 343.25C604.65 343.25 599.25 337.85 599.25 331.25 599.25 324.65 604.65 319.25 611.25 319.25 617.85 319.25 623.25 324.65 623.25 331.25 623.25 337.85 617.85 343.25 611.25 343.25Z" fill="#262626"/></g></svg>